<svg width="1024" height="1024" viewBox="0 0 1024 1024" fill="none" xmlns="http://www.w3.org/2000/svg" role="img" aria-labelledby="title desc">
  <title id="title">Ralph Matthew app icon</title>
  <desc id="desc">A premium black and white app icon featuring a custom geometric R between angle brackets and a slash.</desc>
  <defs>
    <radialGradient id="icon-glow" cx="50%" cy="42%" r="60%">
      <stop offset="0%" stop-color="white" stop-opacity="0.18"/>
      <stop offset="64%" stop-color="white" stop-opacity="0.04"/>
      <stop offset="100%" stop-color="white" stop-opacity="0"/>
    </radialGradient>
    <pattern id="icon-grid" width="72" height="72" patternUnits="userSpaceOnUse">
      <path d="M72 0H0V72" stroke="white" stroke-opacity="0.075"/>
      <circle cx="0" cy="0" r="2" fill="white" fill-opacity="0.18"/>
    </pattern>
    <filter id="mark-glow" x="-35%" y="-35%" width="170%" height="170%">
      <feGaussianBlur stdDeviation="18" result="blur"/>
      <feColorMatrix in="blur" type="matrix" values="1 0 0 0 0  0 1 0 0 0  0 0 1 0 0  0 0 0 0.58 0"/>
      <feBlend in="SourceGraphic"/>
    </filter>
  </defs>
  <rect width="1024" height="1024" rx="232" fill="#050505"/>
  <rect width="1024" height="1024" rx="232" fill="url(#icon-grid)"/>
  <rect width="1024" height="1024" rx="232" fill="url(#icon-glow)"/>
  <rect x="41" y="41" width="942" height="942" rx="206" stroke="white" stroke-opacity="0.13" stroke-width="2"/>
  <g filter="url(#mark-glow)">
    <path d="M358 344L246 512L358 680" stroke="white" stroke-width="48" stroke-linecap="square" stroke-linejoin="miter"/>
    <path d="M666 344L778 512L666 680" stroke="white" stroke-width="48" stroke-linecap="square" stroke-linejoin="miter"/>
    <path d="M618 704L718 320" stroke="white" stroke-width="48" stroke-linecap="square"/>
    <path d="M424 320H548C610 320 654 360 654 420C654 472 618 509 566 519L664 704H596L508 536H480V704H424V320ZM480 370V488H540C574 488 596 464 596 424C596 390 574 370 540 370H480Z" fill="white"/>
  </g>
</svg>
